<svg width="113" height="113" viewBox="0 0 113 113" fill="none" xmlns="http://www.w3.org/2000/svg">
<circle cx="56.7002" cy="56.2383" r="55.9238" fill="#C65843"/>
<path d="M57.3831 19.2617C59.733 19.2617 61.6288 21.1838 61.5966 23.5335L61.0436 63.8019C61.0119 66.1064 59.1348 67.958 56.8301 67.958H56.5482C54.2453 67.958 52.3689 66.1091 52.3348 63.8064L51.7393 23.5379C51.7045 21.1865 53.6011 19.2617 55.9527 19.2617H57.3831ZM51.3674 84.3156C51.3674 82.7724 51.8304 81.4693 52.7563 80.4062C53.7165 79.3431 55.1225 78.8116 56.9743 78.8116C58.7918 78.8116 60.1806 79.3431 61.1408 80.4062C62.1353 81.4693 62.6326 82.7724 62.6326 84.3156C62.6326 85.7901 62.1353 87.059 61.1408 88.122C60.1806 89.1851 58.7918 89.7167 56.9743 89.7167C55.1225 89.7167 53.7165 89.1851 52.7563 88.122C51.8304 87.059 51.3674 85.7901 51.3674 84.3156Z" fill="white"/>
</svg>
