<svg width="113" height="112" viewBox="0 0 113 112" fill="none" xmlns="http://www.w3.org/2000/svg">
<circle cx="56.7002" cy="55.9238" r="55.9238" fill="#E59905"/>
<path d="M99.5614 55.2126C99.367 54.9957 94.718 49.8407 87.1669 44.6248C78.2784 38.4851 67.7151 34 57 34C46.2834 34 35.72 38.4863 26.8331 44.6248C19.2818 49.8407 14.6328 54.9957 14.4387 55.2126C14.1562 55.528 14 55.9365 14 56.36C14 56.7834 14.1562 57.1919 14.4387 57.5074C14.6328 57.7243 19.2818 62.8791 26.8331 68.0952C33.7303 72.8594 44.4088 78.5189 56.376 78.711C56.8141 78.723 57.1856 78.723 57.624 78.711C69.5912 78.5189 80.2697 72.8594 87.1669 68.0952C94.718 62.8793 99.3672 57.7243 99.5614 57.5074C99.8438 57.1919 100 56.7834 100 56.36C100 55.9365 99.8438 55.528 99.5614 55.2126ZM75.92 56.36C75.92 66.785 67.4388 75.2799 57 75.2799C46.5766 75.2799 38.08 66.8005 38.08 56.36C38.08 45.9349 46.561 37.44 57 37.44C67.4235 37.44 75.92 45.9194 75.92 56.36ZM18.1005 56.3593C19.8589 54.5861 23.637 51.0134 28.7883 47.4552C32.0562 45.1979 36.2162 42.7273 40.9547 40.8043C32.5287 49.4931 32.5401 63.2381 40.954 71.9151C36.2443 70.0037 32.1091 67.553 28.8583 65.3131C23.6843 61.748 19.8706 58.1429 18.1005 56.3593ZM85.2118 65.2647C81.9438 67.5219 77.7839 69.9923 73.0457 71.9155C81.4713 63.2267 81.4599 49.4819 73.0462 40.8048C77.7559 42.7161 81.8911 45.1667 85.1417 47.4067C90.3155 50.9719 94.1294 54.5768 95.8995 56.3605C94.1413 58.134 90.363 61.7066 85.2118 65.2647Z" fill="white"/>
<path d="M48.3999 56.36C48.3999 61.102 52.2579 64.96 56.9999 64.96C61.7419 64.96 65.5999 61.102 65.5999 56.36C65.5999 51.618 61.7419 47.76 56.9999 47.76C52.2579 47.76 48.3999 51.618 48.3999 56.36ZM62.1599 56.36C62.1599 59.2052 59.8451 61.52 56.9999 61.52C54.1547 61.52 51.8399 59.2052 51.8399 56.36C51.8399 53.5148 54.1547 51.2 56.9999 51.2C59.8451 51.2 62.1599 53.5148 62.1599 56.36Z" fill="white"/>
<circle cx="57.0002" cy="56.3601" r="5.67599" fill="white"/>
</svg>
