<svg width="80" height="80" viewBox="0 0 80 80" fill="none" xmlns="http://www.w3.org/2000/svg">
<circle cx="40" cy="40" r="39.1321" stroke="#BBCEE3" stroke-width="1.73589"/>
<circle cx="40" cy="40" r="26.1272" fill="#BBCEE3"/>
<path d="M50.4975 31.0347C50.0171 30.833 49.4833 30.8297 49.0007 31.0254C48.518 31.2211 48.1212 31.6018 47.8877 32.093L47.2039 33.5509L47.792 27.9059C47.8468 27.3789 47.7072 26.8499 47.4027 26.4308C47.0982 26.0118 46.6528 25.7355 46.1606 25.6605C45.6685 25.5856 45.1683 25.7179 44.766 26.0293C44.3637 26.3407 44.0909 26.8069 44.0052 27.3292C43.6127 29.7247 42.9237 33.9681 42.7219 35.4702C42.7208 35.4785 42.7168 35.486 42.7107 35.4912C42.7046 35.4964 42.6969 35.499 42.6891 35.4985C42.6813 35.4979 42.674 35.4943 42.6686 35.4882C42.6632 35.4822 42.6602 35.4742 42.6601 35.4659V25.3718C42.6601 24.775 42.4378 24.2025 42.042 23.7805C41.6463 23.3584 41.1096 23.1213 40.5499 23.1213C39.9903 23.1213 39.4535 23.3584 39.0578 23.7805C38.6621 24.2025 38.4397 24.775 38.4397 25.3718V35.4659C38.4397 35.4702 38.4389 35.4745 38.4374 35.4785C38.4358 35.4826 38.4335 35.4862 38.4306 35.4893C38.4278 35.4924 38.4243 35.4948 38.4206 35.4965C38.4168 35.4981 38.4128 35.499 38.4087 35.499H38.3895C38.3821 35.499 38.3749 35.4962 38.3692 35.491C38.3636 35.4858 38.3599 35.4787 38.3588 35.4709L37.1054 27.0025C37.0177 26.4059 36.7123 25.8704 36.2559 25.513C35.7995 25.1555 35.2291 25.005 34.6691 25.0944C34.1091 25.1837 33.6049 25.5055 33.2665 25.9898C32.9281 26.474 32.783 27.0812 32.8628 27.6791L34.2196 37.9268V38.396L32.0933 35.5614C31.762 35.1199 31.2913 34.8221 30.7692 34.7238C30.247 34.6254 29.7092 34.7333 29.2561 35.0271C28.8031 35.321 28.4659 35.7807 28.3076 36.3204C28.1493 36.8601 28.1807 37.4428 28.396 37.9596L31.2887 44.9009C31.8867 46.3386 32.7286 47.646 33.7721 48.7573L34.2196 49.2349V53.5996C33.8678 53.7325 33.5713 53.9936 33.3825 54.337C33.1938 54.6804 33.1249 55.0838 33.188 55.4761C33.2511 55.8685 33.4422 56.2243 33.7275 56.481C34.0128 56.7376 34.374 56.8784 34.7472 56.8786H45.2981C45.6186 56.8788 45.9315 56.7752 46.1955 56.5815C46.4596 56.3878 46.6622 56.1131 46.7766 55.7938C46.891 55.4746 46.9117 55.1258 46.8361 54.7937C46.7605 54.4616 46.5921 54.1618 46.3532 53.934V48.1058C47.3746 46.9636 48.1402 45.5896 48.5929 44.0868L51.6955 33.7465C51.8527 33.2167 51.8167 32.6431 51.5946 32.1403C51.3725 31.6376 50.9807 31.2428 50.4975 31.0347ZM45.2981 55.7533H34.7472C34.6073 55.7533 34.4731 55.694 34.3741 55.5885C34.2752 55.483 34.2196 55.3399 34.2196 55.1907C34.2196 55.0415 34.2752 54.8984 34.3741 54.7929C34.4731 54.6874 34.6073 54.6281 34.7472 54.6281H45.2981C45.438 54.6281 45.5722 54.6874 45.6711 54.7929C45.7701 54.8984 45.8256 55.0415 45.8256 55.1907C45.8256 55.3399 45.7701 55.483 45.6711 55.5885C45.5722 55.694 45.438 55.7533 45.2981 55.7533ZM50.6906 33.4032L47.588 43.7438C47.164 45.1518 46.4321 46.432 45.4526 47.4788C45.4036 47.531 45.3648 47.5931 45.3382 47.6613C45.3117 47.7296 45.2981 47.8027 45.2981 47.8766V53.5028H35.2747V49.0019C35.2747 48.928 35.2611 48.8548 35.2346 48.7866C35.2081 48.7183 35.1692 48.6563 35.1202 48.604L34.5182 47.9619C33.5663 46.9483 32.7984 45.7559 32.2529 44.4447L29.3601 37.5033C29.2686 37.2812 29.2418 37.0348 29.2834 36.7963C29.3249 36.5577 29.4328 36.338 29.5931 36.1658C29.7051 36.0463 29.8395 35.9533 29.9875 35.893C30.1355 35.8326 30.2938 35.8063 30.452 35.8156C30.6102 35.825 30.7648 35.8698 30.9056 35.9472C31.0465 36.0246 31.1704 36.1328 31.2694 36.2648L34.3352 40.3516C34.4035 40.4426 34.4967 40.5088 34.6018 40.5409C34.7069 40.5731 34.8187 40.5696 34.9219 40.531C35.025 40.4924 35.1144 40.4205 35.1776 40.3254C35.2408 40.2303 35.2748 40.1165 35.2747 40V37.8872C35.2747 37.8609 35.273 37.8346 35.2696 37.8085L33.9075 27.5217C33.868 27.2184 33.9422 26.9108 34.1142 26.6655C34.2861 26.4203 34.5419 26.2573 34.8258 26.2121C35.1098 26.1668 35.399 26.2429 35.6307 26.4237C35.8624 26.6046 36.0178 26.8757 36.0631 27.178L37.3169 35.6467C37.3564 35.9196 37.4864 36.1684 37.6833 36.3478C37.8801 36.5272 38.1308 36.6252 38.3898 36.6242H38.4089C38.6969 36.6239 38.973 36.5017 39.1766 36.2846C39.3802 36.0674 39.4948 35.773 39.4951 35.4659V25.3718C39.4951 25.0734 39.6063 24.7872 39.8041 24.5762C40.002 24.3651 40.2704 24.2466 40.5502 24.2466C40.83 24.2466 41.0984 24.3651 41.2962 24.5762C41.4941 24.7872 41.6053 25.0734 41.6053 25.3718V35.4659C41.6053 35.7588 41.7094 36.0409 41.8966 36.2553C42.0838 36.4697 42.3402 36.6005 42.6142 36.6213C42.8883 36.6421 43.1595 36.5514 43.3733 36.3674C43.5871 36.1835 43.7276 35.92 43.7665 35.6299C43.9667 34.1424 44.6534 29.9123 45.0449 27.5229C45.0834 27.2887 45.2059 27.0797 45.3864 26.9401C45.5668 26.8005 45.7911 26.7412 46.0118 26.7749C46.2325 26.8085 46.4323 26.9324 46.5689 27.1203C46.7055 27.3083 46.7681 27.5455 46.7436 27.7818L45.8289 36.5621C45.8152 36.6933 45.8453 36.8255 45.9138 36.9355C45.9823 37.0456 46.085 37.1263 46.2037 37.1638C46.3225 37.2012 46.4498 37.1928 46.5634 37.1402C46.677 37.0876 46.7696 36.994 46.825 36.8759L48.8315 32.5962C48.9449 32.3544 49.1397 32.1672 49.3769 32.0719C49.6142 31.9766 49.8764 31.9803 50.1112 32.0822C50.346 32.1841 50.5361 32.3768 50.6435 32.6217C50.7509 32.8666 50.7677 33.1457 50.6906 33.4032Z" fill="#023F85"/>
<path d="M45.1083 44.5784C45.0551 44.5311 44.9937 44.4955 44.9275 44.4735C44.8614 44.4515 44.7918 44.4436 44.7228 44.4503C44.6538 44.457 44.5867 44.4781 44.5254 44.5124C44.464 44.5467 44.4096 44.5936 44.3653 44.6504C44.2084 44.851 44.0431 45.044 43.87 45.2288C43.821 45.2811 43.7821 45.3431 43.7556 45.4114C43.7291 45.4796 43.7155 45.5528 43.7155 45.6267C43.7155 45.7006 43.7291 45.7737 43.7556 45.842C43.7821 45.9102 43.821 45.9723 43.87 46.0245C43.919 46.0768 43.9771 46.1182 44.0411 46.1465C44.1051 46.1747 44.1737 46.1893 44.243 46.1893C44.3123 46.1893 44.3809 46.1747 44.4449 46.1465C44.5089 46.1182 44.5671 46.0768 44.6161 46.0245C44.8118 45.8157 44.9985 45.5976 45.1758 45.3708C45.2654 45.2562 45.3086 45.1083 45.296 44.9597C45.2833 44.8111 45.2158 44.674 45.1083 44.5784ZM47.0258 39.4592C46.8913 39.4182 46.747 39.4358 46.6247 39.5083C46.5024 39.5808 46.4121 39.7021 46.3736 39.8455L45.9334 41.4888C45.7825 42.0516 45.5785 42.5967 45.3245 43.1156C45.2912 43.1812 45.2706 43.2532 45.2636 43.3274C45.2567 43.4016 45.2637 43.4766 45.2842 43.5479C45.3047 43.6192 45.3382 43.6854 45.3829 43.7428C45.4276 43.8001 45.4826 43.8474 45.5446 43.8819C45.6066 43.9164 45.6744 43.9374 45.7441 43.9437C45.8137 43.95 45.8839 43.9415 45.9504 43.9186C46.017 43.8957 46.0786 43.8589 46.1317 43.8104C46.1848 43.7619 46.2284 43.7027 46.2598 43.636C46.5468 43.0496 46.7773 42.4337 46.9478 41.7978L47.388 40.1546C47.4264 40.0111 47.4098 39.8573 47.3419 39.7269C47.274 39.5965 47.1603 39.5002 47.0258 39.4592Z" fill="#3A96FD"/>
</svg>
