<svg width="80" height="80" viewBox="0 0 80 80" fill="none" xmlns="http://www.w3.org/2000/svg">
<circle cx="40" cy="40" r="39.1321" stroke="#BBCEE3" stroke-width="1.73589"/>
<circle cx="40" cy="40" r="26.1272" fill="#BBCEE3"/>
<path d="M48.2013 48.3691H29.006C27.5461 48.3691 26.3584 47.1814 26.3584 45.7215V27.85C26.3584 26.3901 27.5461 25.2024 29.006 25.2024H48.2013C49.6612 25.2024 50.8489 26.3901 50.8489 27.85V45.7215C50.8489 47.1814 49.6612 48.3691 48.2013 48.3691ZM29.006 26.5262C28.2761 26.5262 27.6822 27.1201 27.6822 27.85V45.7215C27.6822 46.4514 28.2761 47.0453 29.006 47.0453H48.2013C48.9313 47.0453 49.5251 46.4514 49.5251 45.7215V27.85C49.5251 27.1201 48.9313 26.5262 48.2013 26.5262H29.006Z" fill="#023F85"/>
<path d="M54.4893 58.9593H32.3154C30.1256 58.9593 28.344 57.1777 28.344 54.9879C28.344 52.798 30.1256 51.0164 32.3154 51.0164H36.2869C37.3818 51.0164 38.2726 50.1256 38.2726 49.0307V47.7069C38.2726 47.3414 38.569 47.045 38.9345 47.045C39.3 47.045 39.5964 47.3414 39.5964 47.7069V49.0307C39.5964 50.8556 38.1117 52.3402 36.2869 52.3402H32.3154C30.8555 52.3402 29.6678 53.528 29.6678 54.9879C29.6678 56.4478 30.8555 57.6355 32.3154 57.6355H54.4893C55.0368 57.6355 55.4822 57.1901 55.4822 56.6426C55.4822 56.0952 55.0368 55.6498 54.4893 55.6498H45.5536C44.0937 55.6498 42.9059 54.462 42.9059 53.0021C42.9059 51.5422 44.0937 50.3545 45.5536 50.3545H53.4964C54.5914 50.3545 55.4822 49.4637 55.4822 48.3688V43.0735C55.4822 42.708 55.7786 42.4116 56.1441 42.4116C56.5096 42.4116 56.806 42.708 56.806 43.0735V48.3688C56.806 50.1937 55.3213 51.6783 53.4964 51.6783H45.5536C44.8236 51.6783 44.2297 52.2722 44.2297 53.0021C44.2297 53.7321 44.8236 54.3259 45.5536 54.3259H54.4893C55.7667 54.3259 56.806 55.3652 56.806 56.6426C56.806 57.92 55.7667 58.9593 54.4893 58.9593ZM58.1298 34.4688C57.7643 34.4688 57.4679 34.1724 57.4679 33.8068V33.1449C57.4679 32.4138 56.8752 31.8211 56.1441 31.8211C55.4141 31.8211 54.8202 32.415 54.8202 33.1449V33.8068C54.8202 34.1724 54.5238 34.4688 54.1583 34.4688C53.7928 34.4688 53.4964 34.1724 53.4964 33.8068V33.1449C53.4964 31.685 54.6842 30.4973 56.1441 30.4973C57.6067 30.4973 58.7917 31.682 58.7917 33.1449V33.8068C58.7917 34.1724 58.4953 34.4688 58.1298 34.4688Z" fill="#023F85"/>
<path d="M58.1298 37.1165H54.1583C53.0634 37.1165 52.1726 36.2257 52.1726 35.1307C52.1726 34.0358 53.0634 33.145 54.1583 33.145H58.1298C59.2247 33.145 60.1155 34.0358 60.1155 35.1307C60.1155 36.2257 59.2247 37.1165 58.1298 37.1165ZM54.1583 34.4688C53.7934 34.4688 53.4964 34.7658 53.4964 35.1307C53.4964 35.4957 53.7934 35.7926 54.1583 35.7926H58.1298C58.4947 35.7926 58.7917 35.4957 58.7917 35.1307C58.7917 34.7658 58.4947 34.4688 58.1298 34.4688H54.1583Z" fill="#023F85"/>
<path d="M56.1441 43.7357C55.0605 43.7357 54.141 42.8897 54.0508 41.8096L53.6093 36.5096C53.5789 36.1453 53.8497 35.8254 54.214 35.795C54.3006 35.7878 54.3878 35.7977 54.4706 35.8242C54.5534 35.8506 54.6302 35.8932 54.6966 35.9493C54.7629 36.0055 54.8176 36.0742 54.8574 36.1514C54.8972 36.2287 54.9214 36.3131 54.9286 36.3997L55.3701 41.6996C55.4034 42.0989 55.7434 42.4118 56.1441 42.4118C56.5448 42.4118 56.8848 42.0989 56.9182 41.6995L57.3596 36.3997C57.3901 36.0354 57.7107 35.7655 58.0742 35.795C58.4385 35.8254 58.7092 36.1453 58.6789 36.5096L58.2374 41.8095C58.1472 42.8897 57.2277 43.7357 56.1441 43.7357Z" fill="#023F85"/>
<path d="M47.5395 43.0737H29.668C29.3025 43.0737 29.0061 42.7773 29.0061 42.4118V28.5118C29.0061 28.1463 29.3025 27.8499 29.668 27.8499H47.5395C47.905 27.8499 48.2014 28.1463 48.2014 28.5118V42.4118C48.2014 42.7773 47.905 43.0737 47.5395 43.0737ZM30.3299 41.7499H46.8776V29.1737H30.3299V41.7499Z" fill="#3A96FD"/>
<path d="M30.3299 45.721H29.668C29.3025 45.721 29.0061 45.4246 29.0061 45.0591C29.0061 44.6936 29.3025 44.3972 29.668 44.3972H30.3299C30.6954 44.3972 30.9918 44.6936 30.9918 45.0591C30.9918 45.4246 30.6954 45.721 30.3299 45.721ZM33.6394 45.721H32.9775C32.612 45.721 32.3156 45.4246 32.3156 45.0591C32.3156 44.6936 32.612 44.3972 32.9775 44.3972H33.6394C34.005 44.3972 34.3014 44.6936 34.3014 45.0591C34.3014 45.4246 34.005 45.721 33.6394 45.721ZM36.949 45.721H36.2871C35.9216 45.721 35.6252 45.4246 35.6252 45.0591C35.6252 44.6936 35.9216 44.3972 36.2871 44.3972H36.949C37.3145 44.3972 37.6109 44.6936 37.6109 45.0591C37.6109 45.4246 37.3145 45.721 36.949 45.721Z" fill="#023F85"/>
<path d="M33.1174 36.4587C32.859 36.2002 32.859 35.7811 33.1174 35.5225L36.2538 32.3862C36.5122 32.1278 36.9313 32.1278 37.1899 32.3862C37.971 33.1674 39.236 33.1678 40.0174 32.3862C40.2757 32.1278 40.695 32.1278 40.9536 32.3862L44.0899 35.5225C44.3484 35.781 44.3484 36.2001 44.0899 36.4587C41.0578 39.4907 36.15 39.4911 33.1174 36.4587ZM34.5452 35.967C36.9014 37.8887 40.3057 37.889 42.6621 35.967L40.4392 33.744C39.3333 34.4798 37.8752 34.4803 36.7682 33.744L34.5452 35.967Z" fill="#3A96FD"/>
</svg>
