<svg width="80" height="80" viewBox="0 0 80 80" fill="none" xmlns="http://www.w3.org/2000/svg">
<circle cx="40" cy="40" r="39.1321" stroke="#BBCEE3" stroke-width="1.73589"/>
<circle cx="40" cy="40" r="26.1272" fill="#BBCEE3"/>
<path fill-rule="evenodd" clip-rule="evenodd" d="M40 55.5625C48.5949 55.5625 55.5625 48.5949 55.5625 40C55.5625 31.405 48.5949 24.4374 40 24.4374C31.405 24.4374 24.4374 31.405 24.4374 40C24.4374 48.5949 31.405 55.5625 40 55.5625ZM40 56.8786C49.3218 56.8786 56.8786 49.3218 56.8786 40C56.8786 30.6781 49.3218 23.1213 40 23.1213C30.6781 23.1213 23.1213 30.6781 23.1213 40C23.1213 49.3218 30.6781 56.8786 40 56.8786Z" fill="#023F85"/>
<path fill-rule="evenodd" clip-rule="evenodd" d="M46.904 30.4976C44.8972 29.0396 42.4804 28.2543 39.9999 28.2543C37.5194 28.2543 35.1026 29.0396 33.0958 30.4976L32.3223 29.4329C34.5539 27.8115 37.2415 26.9382 39.9999 26.9382C42.7583 26.9382 45.4459 27.8115 47.6776 29.4328L46.904 30.4976Z" fill="#3A96FD"/>
<path fill-rule="evenodd" clip-rule="evenodd" d="M51.6583 38.5688C51.5081 37.3454 51.1663 36.1533 50.6454 35.0362L51.8382 34.48C52.4174 35.7222 52.7976 37.0479 52.9646 38.4084L51.6583 38.5688Z" fill="#3A96FD"/>
<path fill-rule="evenodd" clip-rule="evenodd" d="M28.3417 38.5688C28.4919 37.3454 28.8337 36.1533 29.3546 35.0362L28.1618 34.48C27.5826 35.7222 27.2024 37.0479 27.0354 38.4084L28.3417 38.5688Z" fill="#3A96FD"/>
<path fill-rule="evenodd" clip-rule="evenodd" d="M39.967 47.1397C43.892 47.1397 47.0738 43.9579 47.0738 40.033C47.0738 36.108 43.892 32.9262 39.967 32.9262C36.0421 32.9262 32.8603 36.108 32.8603 40.033C32.8603 43.9579 36.0421 47.1397 39.967 47.1397ZM39.967 48.4558C44.6189 48.4558 48.3899 44.6848 48.3899 40.033C48.3899 35.3811 44.6189 31.6101 39.967 31.6101C35.3152 31.6101 31.5442 35.3811 31.5442 40.033C31.5442 44.6848 35.3152 48.4558 39.967 48.4558Z" fill="#023F85"/>
<path fill-rule="evenodd" clip-rule="evenodd" d="M25.4246 48.5217V55.5675V56.8836H26.7406H40H53.2595H54.5755V55.5675V48.5217C54.1809 49.1957 53.7408 49.8399 53.2595 50.45V55.5675H46.5455C44.5327 56.4151 42.3211 56.8836 40 56.8836C37.679 56.8836 35.4674 56.4151 33.4546 55.5675H26.7406V50.45C26.2593 49.8399 25.8192 49.1957 25.4246 48.5217Z" fill="#023F85"/>
<path d="M29.8333 42.1387H50.1666V43.2573C50.1666 46.1647 47.8097 48.5216 44.9023 48.5216H35.0975C32.1902 48.5216 29.8333 46.1647 29.8333 43.2573V42.1387Z" fill="#BBCEE3"/>
<path fill-rule="evenodd" clip-rule="evenodd" d="M29.8369 43.4547C29.8345 43.3892 29.8333 43.3234 29.8333 43.2573V42.1387H50.1666V43.2573C50.1666 43.3234 50.1653 43.3892 50.1629 43.4547C50.0591 46.2707 47.7436 48.5216 44.9023 48.5216H35.0975C32.2562 48.5216 29.9407 46.2707 29.8369 43.4547ZM48.8456 43.4547H31.1542C31.257 45.5436 32.9832 47.2055 35.0975 47.2055H44.9023C47.0166 47.2055 48.7428 45.5436 48.8456 43.4547Z" fill="#3A96FD"/>
<path fill-rule="evenodd" clip-rule="evenodd" d="M41.7438 48.7191H38.2563V55.5627H41.7438V48.7191ZM36.9402 47.4031V56.8788H43.0599V47.4031H36.9402Z" fill="#3A96FD"/>
</svg>
