<svg width="80" height="80" viewBox="0 0 80 80" fill="none" xmlns="http://www.w3.org/2000/svg">
<circle cx="40" cy="40" r="39.1321" stroke="#BBCEE3" stroke-width="1.73589"/>
<circle cx="40" cy="40" r="26.1272" fill="#BBCEE3"/>
<path d="M45.6456 44.186C43.3627 43.9339 41.965 43.2351 40.6132 42.5593C39.2643 41.8849 37.9902 41.2478 35.8142 41.0425C35.4502 41.008 35.183 40.6852 35.2173 40.3212C35.2517 39.9573 35.5745 39.6901 35.9385 39.7244C40.6017 40.1646 41.5598 42.4029 45.7909 42.8702C46.1543 42.9103 46.4163 43.2374 46.3762 43.6007C46.3361 43.9625 46.0108 44.2262 45.6456 44.186Z" fill="#3A96FD"/>
<path d="M49.4359 56.8788H30.3973C28.3755 56.8788 27.098 54.7039 28.0873 52.9375L35.3611 39.9487C35.5269 39.6521 35.6141 39.3181 35.6142 38.9784V27.0931C35.6142 26.7276 35.9106 26.4312 36.2761 26.4312H43.5571C43.9226 26.4312 44.219 26.7276 44.219 27.0931V38.9784C44.219 39.3174 44.3065 39.6529 44.4721 39.9487L51.7459 52.9376C52.7339 54.7016 51.4603 56.8788 49.4359 56.8788ZM36.9381 27.755V38.9784C36.9377 39.5446 36.7925 40.1013 36.5161 40.5955L29.2423 53.5844C28.7484 54.4664 29.385 55.555 30.3973 55.555H49.4359C50.4468 55.555 51.0856 54.4675 50.5909 53.5844V53.5844L43.3172 40.5954C43.0408 40.1013 42.8955 39.5446 42.8952 38.9784V27.755H36.9381Z" fill="#023F85"/>
<path d="M43.2263 27.7549H36.6072C35.3298 27.7549 34.2905 26.7157 34.2905 25.4383C34.2905 24.1608 35.3298 23.1216 36.6072 23.1216H43.2263C44.5037 23.1216 45.5429 24.1608 45.5429 25.4383C45.5429 26.7157 44.5036 27.7549 43.2263 27.7549ZM36.6072 24.4454C36.0597 24.4454 35.6143 24.8908 35.6143 25.4383C35.6143 25.9857 36.0597 26.4311 36.6072 26.4311H43.2263C43.7737 26.4311 44.2191 25.9857 44.2191 25.4383C44.2191 24.8908 43.7737 24.4454 43.2263 24.4454H36.6072ZM38.9239 30.4025H36.2762C35.9107 30.4025 35.6143 30.1061 35.6143 29.7406C35.6143 29.3751 35.9107 29.0787 36.2762 29.0787H38.9239C39.2894 29.0787 39.5858 29.3751 39.5858 29.7406C39.5858 30.1061 39.2894 30.4025 38.9239 30.4025ZM38.262 33.0502H36.2762C35.9107 33.0502 35.6143 32.7538 35.6143 32.3883C35.6143 32.0228 35.9107 31.7264 36.2762 31.7264H38.262C38.6275 31.7264 38.9239 32.0228 38.9239 32.3883C38.9239 32.7538 38.6275 33.0502 38.262 33.0502ZM38.262 38.3454H36.2762C35.9107 38.3454 35.6143 38.049 35.6143 37.6835C35.6143 37.318 35.9107 37.0216 36.2762 37.0216H38.262C38.6275 37.0216 38.9239 37.318 38.9239 37.6835C38.9239 38.049 38.6275 38.3454 38.262 38.3454ZM38.9239 35.6978H36.2762C35.9107 35.6978 35.6143 35.4014 35.6143 35.0359C35.6143 34.6704 35.9107 34.374 36.2762 34.374H38.9239C39.2894 34.374 39.5858 34.6704 39.5858 35.0359C39.5858 35.4014 39.2894 35.6978 38.9239 35.6978Z" fill="#023F85"/>
<path d="M34.9524 53.5694C33.8575 53.5694 32.9667 52.6786 32.9667 51.5837C32.9667 50.4887 33.8575 49.5979 34.9524 49.5979C36.0473 49.5979 36.9381 50.4887 36.9381 51.5837C36.9381 52.6786 36.0473 53.5694 34.9524 53.5694ZM34.9524 50.9218C34.5874 50.9218 34.2905 51.2187 34.2905 51.5837C34.2905 51.9486 34.5874 52.2456 34.9524 52.2456C35.3174 52.2456 35.6143 51.9486 35.6143 51.5837C35.6143 51.2187 35.3173 50.9218 34.9524 50.9218ZM39.9167 48.936C38.8218 48.936 37.931 48.0452 37.931 46.9503C37.931 45.8554 38.8218 44.9646 39.9167 44.9646C41.0116 44.9646 41.9024 45.8554 41.9024 46.9503C41.9024 48.0452 41.0116 48.936 39.9167 48.936ZM39.9167 46.2884C39.5517 46.2884 39.2548 46.5853 39.2548 46.9503C39.2548 47.3153 39.5517 47.6122 39.9167 47.6122C40.2817 47.6122 40.5786 47.3153 40.5786 46.9503C40.5786 46.5853 40.2816 46.2884 39.9167 46.2884ZM44.881 54.2313C43.7861 54.2313 42.8953 53.3405 42.8953 52.2456C42.8953 51.1506 43.7861 50.2598 44.881 50.2598C45.9759 50.2598 46.8667 51.1506 46.8667 52.2456C46.8667 53.3405 45.9759 54.2313 44.881 54.2313ZM44.881 51.5837C44.516 51.5837 44.2191 51.8806 44.2191 52.2456C44.2191 52.6105 44.516 52.9075 44.881 52.9075C45.2459 52.9075 45.5429 52.6105 45.5429 52.2456C45.5429 51.8806 45.2459 51.5837 44.881 51.5837Z" fill="#3A96FD"/>
</svg>
